<?xml version="1.0" encoding="utf-8"?>
<!-- Generator: Adobe Illustrator 28.0.0, SVG Export Plug-In . SVG Version: 6.00 Build 0)  -->
<svg version="1.1" id="Layer_1" xmlns="http://www.w3.org/2000/svg" xmlns:xlink="http://www.w3.org/1999/xlink" x="0px" y="0px"
	 viewBox="0 0 7000 4000" style="enable-background:new 0 0 7000 4000;" xml:space="preserve">
<style type="text/css">
	.st0{clip-path:url(#SVGID_00000087399927935064568240000018258282679549970832_);fill:url(#SVGID_1_);}
	.st1{opacity:0.27;fill-rule:evenodd;clip-rule:evenodd;fill:#FFFFFF;}
	.st2{opacity:0.42;fill-rule:evenodd;clip-rule:evenodd;fill:#FFFFFF;}
	.st3{opacity:0.25;fill-rule:evenodd;clip-rule:evenodd;fill:#FFFFFF;}
	.st4{opacity:0.4;fill-rule:evenodd;clip-rule:evenodd;fill:#FFFFFF;}
</style>
<g>
	<g>
		<defs>
			<rect id="SVGID_4_" x="0" width="7000" height="4000"/>
		</defs>
		<clipPath id="SVGID_00000061465482475603001950000003956174900035884965_">
			<use xlink:href="#SVGID_4_"  style="overflow:visible;"/>
		</clipPath>
		<linearGradient id="SVGID_1_" gradientUnits="userSpaceOnUse" x1="322.5658" y1="3680.0227" x2="6122.5664" y2="613.3558">
			<stop  offset="0" style="stop-color:#00509C"/>
			<stop  offset="1" style="stop-color:#78C8CE"/>
		</linearGradient>
		
			<rect x="0" style="clip-path:url(#SVGID_00000061465482475603001950000003956174900035884965_);fill:url(#SVGID_1_);" width="7000" height="4000"/>
	</g>
	<polygon class="st1" points="3182.48,604.15 3923.51,1142.54 4664.55,1680.93 4381.5,2552.07 4098.45,3423.2 3182.48,3423.2 
		2266.52,3423.2 1983.47,2552.07 1700.42,1680.93 2441.45,1142.54 	"/>
	<polygon class="st2" points="6079.66,0 4485.31,0 4271.99,154.99 3418.13,775.35 3261.49,889.16 3647.47,2077.07 4033.44,3264.98 
		4149.86,3264.98 5282.49,3264.98 6531.53,3264.98 6917.5,2077.07 7000,1823.17 7000,668.66 6292.98,154.99 	"/>
	<polygon class="st3" points="3007.49,570.82 2221.82,0 0,0 0,2946.64 986.49,2946.64 2111.67,2946.64 2235.53,2946.64 
		2621.51,1758.73 2939.23,780.89 	"/>
	<polygon class="st4" points="0,2946.64 0,4000 2413.94,4000 2438.18,3925.4 2601.35,3423.2 2824.15,2737.49 2402.93,2431.45 
		1813.66,2003.32 1802.55,1995.25 803.16,1269.14 0,1852.67 	"/>
</g>
</svg>
