<?xml version="1.0" encoding="utf-8"?>
<!-- Generator: Adobe Illustrator 28.0.0, SVG Export Plug-In . SVG Version: 6.00 Build 0)  -->
<svg version="1.1" xmlns="http://www.w3.org/2000/svg" xmlns:xlink="http://www.w3.org/1999/xlink" x="0px" y="0px"
	 viewBox="0 0 750 500" style="enable-background:new 0 0 750 500;" xml:space="preserve">
<style type="text/css">
	.st0{display:none;}
	.st1{clip-path:url(#SVGID_00000054240669989786636150000013592438460592447670_);}
	.st2{fill:#113C52;}
	.st3{fill:#103451;}
	.st4{fill:#249597;}
	.st5{fill:#196576;}
	.st6{fill:#91CBC7;}
	.st7{fill:#C0DFDC;}
	.st8{fill:#103758;}
	.st9{fill:#5EBBB8;}
	.st10{fill:#2DA6A4;}
	.st11{fill:#73B6BE;}
	.st12{fill:#A6D3D6;}
	.st13{fill:#E0E8EC;}
	.st14{fill:#D6E5E6;}
	.st15{fill:#B7D5D4;}
	.st16{fill:#E6EDEA;}
	.st17{fill:#F4F1F4;}
	.st18{clip-path:url(#SVGID_00000142178066125996181060000007918527170359519626_);}
	.st19{fill:none;stroke:#103451;stroke-width:0.5;stroke-linecap:round;stroke-linejoin:round;stroke-miterlimit:10;}
</style>
<g id="BACKGROUND" class="st0">
</g>
<g id="OBJECTS">
	<g>
		<defs>
			<rect id="SVGID_1_" width="750" height="500"/>
		</defs>
		<clipPath id="SVGID_00000113344514222069673740000003562396764001077946_">
			<use xlink:href="#SVGID_1_"  style="overflow:visible;"/>
		</clipPath>
		<g style="clip-path:url(#SVGID_00000113344514222069673740000003562396764001077946_);">
			<polygon class="st2" points="-17.14,376.39 113.36,294.05 158.86,438.43 			"/>
			<polygon class="st3" points="-14.64,376.05 158.36,438.05 42.36,558.05 			"/>
			<polygon class="st4" points="113.36,294.05 200.36,392.05 158.36,438.05 			"/>
			<polygon class="st5" points="113.36,294.05 155.36,266.05 200.36,392.05 			"/>
			<polygon class="st6" points="155.36,266.05 240.36,360.05 200.36,392.05 			"/>
			<polygon class="st7" points="155.36,266.05 260.36,323.05 240.36,360.05 			"/>
			<polygon class="st8" points="-11.64,264.05 113.36,294.05 -14.64,376.05 			"/>
			<polygon class="st9" points="-11.64,264.05 72.19,254.72 113.36,294.05 			"/>
			<polygon class="st9" points="14.86,157.8 72.36,255.05 -0.97,233.72 			"/>
			<path class="st9" d="M200.36,392.05"/>
			<polygon class="st9" points="240.36,360.05 322.36,354.39 260.36,323.05 			"/>
			<polygon class="st9" points="245.69,431.72 158.36,438.05 200.36,392.05 			"/>
			<polygon class="st10" points="200.36,392.05 240.36,360.05 245.71,431.75 			"/>
			<polygon class="st6" points="240.36,360.05 291.36,428.05 322.36,354.39 			"/>
			<polygon class="st11" points="240.36,360.05 245.69,431.72 291.36,428.05 			"/>
			<polygon class="st12" points="322.36,354.39 291.36,428.05 429.03,453.72 			"/>
			<polygon class="st10" points="291.36,428.05 272.36,541.05 429.03,453.72 			"/>
			<polygon class="st7" points="322.36,354.39 425.69,365.72 429.03,453.72 			"/>
			<polygon class="st13" points="322.36,354.39 413.36,344.05 425.69,365.72 			"/>
			<polygon class="st10" points="-8.64,118.06 72.36,255.05 94.86,156.05 			"/>
			<polygon class="st7" points="94.86,156.05 155.36,266.05 72.36,255.05 			"/>
			<polygon class="st10" points="72.36,255.05 155.36,266.05 113.36,294.05 			"/>
			<polygon class="st14" points="155.36,266.05 94.86,156.05 192.36,180.05 			"/>
			<polygon class="st15" points="192.36,180.05 260.36,323.05 155.36,266.05 			"/>
			<polygon class="st16" points="260.36,323.05 378.36,296.05 322.36,354.39 			"/>
			<polygon class="st17" points="378.36,296.05 413.36,344.05 322.36,354.39 			"/>
			<polygon class="st15" points="192.36,180.05 222.36,70.06 94.86,156.05 			"/>
			<polygon class="st15" points="-8.64,118.06 49.36,33.06 94.86,156.05 			"/>
			<polygon class="st3" points="215.36,523.05 245.36,479.05 272.36,541.05 			"/>
			<polyline class="st4" points="429.03,453.72 272.36,541.05 429.03,557.72 426.36,455.05 429.03,557.72 			"/>
			<polygon class="st3" points="429.03,557.72 487.69,489.72 570.36,506.39 			"/>
			<polygon class="st5" points="158.36,438.05 245.36,479.05 185.36,573.05 			"/>
			<polygon class="st7" points="158.36,438.05 245.69,431.72 245.36,479.05 			"/>
			<polygon class="st13" points="-8.64,118.06 49.36,33.06 -12.64,-9.94 			"/>
			<polygon class="st7" points="49.36,33.06 222.36,70.06 94.86,156.05 			"/>
			<polygon class="st6" points="49.36,33.06 111.46,-22.84 222.36,70.06 			"/>
			<polygon class="st4" points="158.86,437.8 188.11,573.05 42.36,558.05 			"/>
			<polygon class="st4" points="245.36,479.05 291.36,428.05 245.69,431.72 			"/>
			<polygon class="st17" points="192.36,180.05 378.36,296.05 260.36,323.05 			"/>
			<polygon class="st17" points="-12.64,-9.94 49.36,33.06 111.46,-22.84 			"/>
			<polygon class="st6" points="245.36,479.05 272.36,541.05 291.36,428.05 			"/>
			<path class="st4" d="M460.86,439.05"/>
			<polygon class="st12" points="425.69,365.72 536.36,414.8 429.03,453.72 			"/>
			<polygon class="st16" points="560.36,257.72 425.69,365.72 536.36,414.8 			"/>
			<polygon class="st17" points="413.36,344.05 560.36,257.72 425.69,365.72 			"/>
			<polygon class="st7" points="536.36,414.8 590.36,388.39 560.36,257.72 			"/>
			<polygon class="st17" points="560.36,257.72 689.69,389.05 590.36,388.39 			"/>
			<polygon class="st7" points="590.36,388.39 696.36,466.05 689.69,389.05 			"/>
			<polygon class="st11" points="536.36,414.8 487.69,489.72 429.03,453.72 			"/>
			<polygon class="st4" points="570.36,506.39 487.69,489.72 536.36,414.8 			"/>
			<polygon class="st5" points="429.03,557.72 429.03,453.72 487.69,489.72 			"/>
			<polygon class="st12" points="536.36,414.8 545.11,439.55 570.36,506.39 590.36,388.39 			"/>
			<polygon class="st11" points="696.36,466.05 570.36,506.39 590.36,388.39 			"/>
			<polygon class="st17" points="689.69,389.05 834.36,409.05 696.36,466.05 			"/>
			<polygon class="st16" points="696.36,466.05 680.36,525.72 748.36,549.72 834.36,409.05 			"/>
			<polygon class="st12" points="570.36,506.39 671.69,558.39 696.36,466.05 			"/>
			<polygon class="st5" points="-9.31,230.72 72.36,255.05 -11.64,264.05 			"/>
			<polyline class="st2" points="42.36,558.05 -53.64,554.39 -13.97,367.05 42.36,560.39 			"/>
			<polygon class="st6" points="-8.64,118.06 14.86,157.8 -0.64,233.05 -27.97,224.89 			"/>
			<polygon class="st2" points="429.03,557.72 671.69,558.39 570.36,506.39 			"/>
			<polygon class="st16" points="415.36,330.05 393.36,292.05 474.36,288.05 			"/>
			<polygon class="st16" points="690.43,347.64 642.44,223.15 739.93,292.14 			"/>
			<polygon class="st17" points="741.36,192.05 740.36,218.05 708.36,203.05 			"/>
			<polygon class="st16" points="210.36,171.72 240.46,65.65 298.95,92.65 			"/>
			<polygon class="st17" points="603.36,242.05 623.36,292.05 577.94,253.15 			"/>
			<polygon class="st17" points="725.36,187.05 770.36,169.05 746.36,153.05 			"/>
			<polygon class="st17" points="155.36,-31.11 237.36,38.56 273.36,-31.11 			"/>
			<polygon class="st17" points="404.45,268.89 444.94,256.9 426.86,234.97 			"/>
			<polygon class="st17" points="274.96,128.65 307.95,95.65 352.95,112.15 			"/>
			<polygon class="st17" points="212.36,179.05 362.36,199.72 343.69,240.39 			"/>
		</g>
	</g>
	<g>
		<defs>
			<rect id="SVGID_00000079458585189004228510000011405725781491004573_" width="750" height="500"/>
		</defs>
		<clipPath id="SVGID_00000160869994798811914650000005265926402720304817_">
			<use xlink:href="#SVGID_00000079458585189004228510000011405725781491004573_"  style="overflow:visible;"/>
		</clipPath>
		<g style="clip-path:url(#SVGID_00000160869994798811914650000005265926402720304817_);">
			<polygon class="st19" points="-29.53,86.65 61.97,116.65 49.36,33.06 			"/>
			<polygon class="st19" points="60.56,115.24 138.36,93.06 94.86,156.05 			"/>
			<polygon class="st19" points="49.36,33.06 222.36,70.06 111.46,-22.84 			"/>
			<path class="st3" d="M47.97,31.62c0.78-0.78,2.04-0.78,2.82,0c0.78,0.78,0.78,2.04,0,2.82c-0.78,0.78-2.04,0.78-2.82,0
				C47.19,33.66,47.19,32.4,47.97,31.62z"/>
			<path class="st3" d="M59.15,113.83c0.78-0.78,2.04-0.78,2.82,0c0.78,0.78,0.78,2.04,0,2.82c-0.78,0.78-2.04,0.78-2.82,0
				C58.37,115.87,58.37,114.61,59.15,113.83z"/>
			<circle class="st3" cx="94.86" cy="156.05" r="1.99"/>
			<path class="st3" d="M240.54,49.06c0.78-0.78,2.04-0.78,2.82,0c0.78,0.78,0.78,2.04,0,2.82c-0.78,0.78-2.04,0.78-2.82,0
				C239.76,51.1,239.76,49.83,240.54,49.06z"/>
			<path class="st3" d="M297.03,52.23c0.78-0.78,2.04-0.78,2.82,0c0.78,0.78,0.78,2.04,0,2.82c-0.78,0.78-2.04,0.78-2.82,0
				C296.25,54.28,296.25,53.01,297.03,52.23z"/>
			<circle class="st3" cx="312.62" cy="111.13" r="1.21"/>
			<path class="st3" d="M609.87,333.39c0.78-0.78,2.04-0.78,2.82,0c0.78,0.78,0.78,2.04,0,2.82c-0.78,0.78-2.04,0.78-2.82,0
				C609.09,335.43,609.09,334.17,609.87,333.39z"/>
			<path class="st3" d="M688.54,387.73c0.78-0.78,2.04-0.78,2.82,0c0.78,0.78,0.78,2.04,0,2.82c-0.78,0.78-2.04,0.78-2.82,0
				C687.76,389.78,687.76,388.51,688.54,387.73z"/>
			<path class="st3" d="M534.54,413.39c0.78-0.78,2.04-0.78,2.82,0c0.78,0.78,0.78,2.04,0,2.82s-2.04,0.78-2.82,0
				C533.76,415.43,533.76,414.17,534.54,413.39z"/>
			<path class="st3" d="M190.54,178.05c0.78-0.78,2.04-0.78,2.82,0c0.78,0.78,0.78,2.04,0,2.82c-0.78,0.78-2.04,0.78-2.82,0
				C189.76,180.1,189.76,178.83,190.54,178.05z"/>
			<path class="st3" d="M13.54,156.23c0.78-0.78,2.04-0.78,2.82,0c0.78,0.78,0.78,2.04,0,2.82c-0.78,0.78-2.04,0.78-2.82,0
				C12.76,158.28,12.76,157.01,13.54,156.23z"/>
			<path class="st3" d="M275.28,12.64c0.78-0.78,2.04-0.78,2.82,0c0.78,0.78,0.78,2.04,0,2.82c-0.78,0.78-2.04,0.78-2.82,0
				C274.5,14.69,274.5,13.42,275.28,12.64z"/>
			<path class="st3" d="M80.04,216.73c0.78-0.78,2.04-0.78,2.82,0c0.78,0.78,0.78,2.04,0,2.82c-0.78,0.78-2.04,0.78-2.82,0
				C79.26,218.78,79.26,217.51,80.04,216.73z"/>
			<circle class="st3" cx="222.36" cy="70.06" r="1.99"/>
			<path class="st3" d="M342.68,200.63c0.78-0.78,2.04-0.78,2.82,0c0.78,0.78,0.78,2.04,0,2.82c-0.78,0.78-2.04,0.78-2.82,0
				C341.9,202.67,341.9,201.4,342.68,200.63z"/>
			<path class="st3" d="M349.62,260.98c0.78-0.78,2.04-0.78,2.82,0c0.78,0.78,0.78,2.04,0,2.82c-0.78,0.78-2.04,0.78-2.82,0
				C348.84,263.02,348.84,261.76,349.62,260.98z"/>
			<path class="st3" d="M199.16,390.36c0.78-0.78,2.04-0.78,2.82,0c0.78,0.78,0.78,2.04,0,2.82c-0.78,0.78-2.04,0.78-2.82,0
				C198.39,392.4,198.39,391.14,199.16,390.36z"/>
			<path class="st3" d="M424.19,364.07c0.78-0.78,2.04-0.78,2.82,0c0.78,0.78,0.78,2.04,0,2.82c-0.78,0.78-2.04,0.78-2.82,0
				C423.41,366.11,423.41,364.85,424.19,364.07z"/>
			<path class="st3" d="M320.95,352.98c0.78-0.78,2.04-0.78,2.82,0c0.78,0.78,0.78,2.04,0,2.82c-0.78,0.78-2.04,0.78-2.82,0
				C320.17,355.02,320.17,353.76,320.95,352.98z"/>
			<circle class="st3" cx="154.78" cy="265.35" r="2.79"/>
			<circle class="st3" cx="240.03" cy="360.6" r="2.79"/>
			<path class="st3" d="M329.04,239.13c0.78-0.78,2.04-0.78,2.82,0c0.78,0.78,0.78,2.04,0,2.82c-0.78,0.78-2.04,0.78-2.82,0
				C328.26,241.17,328.26,239.9,329.04,239.13z"/>
			<path class="st3" d="M376.29,282.75c0.49-0.49,1.28-0.49,1.77,0c0.49,0.49,0.49,1.28,0,1.77c-0.49,0.49-1.28,0.49-1.77,0
				C375.8,284.04,375.8,283.24,376.29,282.75z"/>
			<path class="st3" d="M382.59,225.03c0.49-0.49,1.28-0.49,1.77,0s0.49,1.28,0,1.77c-0.49,0.49-1.28,0.49-1.77,0
				C382.1,226.32,382.1,225.52,382.59,225.03z"/>
			<circle class="st3" cx="378.14" cy="295.94" r="1.25"/>
			<circle class="st3" cx="260.47" cy="322.94" r="1.25"/>
			<path class="st3" d="M482.59,220.72c0.49-0.49,1.28-0.49,1.77,0c0.49,0.49,0.49,1.28,0,1.77s-1.28,0.49-1.77,0
				C482.1,222,482.1,221.21,482.59,220.72z"/>
			<path class="st3" d="M559.36,257.28c0.49-0.49,1.28-0.49,1.77,0c0.49,0.49,0.49,1.28,0,1.77c-0.49,0.49-1.28,0.49-1.77,0
				S558.87,257.77,559.36,257.28z"/>
			<path class="st3" d="M441.59,392.28c0.49-0.49,1.28-0.49,1.77,0c0.49,0.49,0.49,1.28,0,1.77s-1.28,0.49-1.77,0
				C441.1,393.57,441.1,392.77,441.59,392.28z"/>
			<circle class="st3" cx="138.36" cy="93.06" r="1.99"/>
			<polyline class="st19" points="-26.14,111.56 94.86,156.05 72.36,255.05 -49.14,218.55 			"/>
			<polyline class="st19" points="383.36,226.05 351.03,262.39 377.36,284.05 344.36,201.05 330.36,241.05 260.36,323.05 
				155.36,266.05 94.86,156.05 222.36,70.06 241.86,50.56 298.36,54.06 312.36,110.39 			"/>
			<polygon class="st19" points="155.36,266.05 113.36,294.05 200.36,392.05 			"/>
			<polyline class="st19" points="113.36,294.05 72.36,255.05 155.36,266.05 192.36,180.05 222.36,70.06 			"/>
			<polygon class="st19" points="200.36,392.05 240.36,360.05 245.69,431.72 			"/>
			<line class="st19" x1="241.86" y1="50.56" x2="276.69" y2="14.06"/>
			<polyline class="st19" points="-0.97,233.72 14.86,157.8 80.86,218.05 155.36,266.05 240.36,360.05 322.36,354.39 429.03,453.72 
							"/>
			<polyline class="st19" points="49.38,33.03 94.86,156.05 192.36,180.05 			"/>
			<line class="st19" x1="80.86" y1="218.05" x2="192.36" y2="180.05"/>
			<path class="st3" d="M200.36,392.05"/>
			<polyline class="st19" points="200.36,392.05 158.36,438.05 40.61,559.8 			"/>
			<polyline class="st19" points="483.69,221.72 505.36,250.05 531.69,258.39 560.36,257.72 425.69,365.72 429.03,453.72 
				291.36,428.05 240.36,360.05 260.36,323.05 192.36,180.05 330.36,241.05 			"/>
			<polyline class="st19" points="425.69,365.72 322.36,354.39 291.36,428.05 245.69,431.72 			"/>
			<path class="st3" d="M504.48,248.78c0.49-0.49,1.28-0.49,1.77,0s0.49,1.28,0,1.77c-0.49,0.49-1.28,0.49-1.77,0
				C504,250.07,504,249.27,504.48,248.78z"/>
			<path class="st3" d="M531.09,257.05c0.49-0.49,1.28-0.49,1.77,0s0.49,1.28,0,1.77s-1.28,0.49-1.77,0
				C530.6,258.34,530.6,257.54,531.09,257.05z"/>
			<path class="st3" d="M514.34,216.03c0.49-0.49,1.28-0.49,1.77,0s0.49,1.28,0,1.77c-0.49,0.49-1.28,0.49-1.77,0
				C513.85,217.32,513.85,216.52,514.34,216.03z"/>
			<circle class="st3" cx="460.36" cy="275.55" r="1.25"/>
			<path class="st3" d="M412.59,343.28c0.49-0.49,1.28-0.49,1.77,0c0.49,0.49,0.49,1.28,0,1.77s-1.28,0.49-1.77,0
				C412.1,344.57,412.1,343.77,412.59,343.28z"/>
			<polygon class="st19" points="413.36,344.05 322.36,354.39 442.36,393.05 			"/>
			<polygon class="st19" points="560.36,257.72 536.36,414.8 590.36,388.39 			"/>
			<polyline class="st19" points="515.36,217.05 460.36,275.55 425.69,365.72 536.36,414.8 611.36,335.05 560.36,257.72 
				689.69,389.05 			"/>
			<polyline class="st19" points="590.36,388.39 570.36,506.39 696.36,466.05 			"/>
			<path class="st3" d="M589.47,387.5c0.49-0.49,1.28-0.49,1.77,0c0.49,0.49,0.49,1.28,0,1.77c-0.49,0.49-1.28,0.49-1.77,0
				C588.99,388.78,588.99,387.99,589.47,387.5z"/>
			<polyline class="st19" points="710.36,358.39 689.69,389.05 696.36,466.05 590.36,388.39 689.69,389.05 834.36,409.05 			"/>
			<path class="st3" d="M709.47,357.5c0.49-0.49,1.28-0.49,1.77,0c0.49,0.49,0.49,1.28,0,1.77c-0.49,0.49-1.28,0.49-1.77,0
				C708.99,358.78,708.99,357.99,709.47,357.5z"/>
			<path class="st3" d="M704.14,309.5c0.49-0.49,1.28-0.49,1.77,0c0.49,0.49,0.49,1.28,0,1.77c-0.49,0.49-1.28,0.49-1.77,0
				C703.65,310.78,703.65,309.99,704.14,309.5z"/>
			<circle class="st3" cx="655.29" cy="328.94" r="1.25"/>
			<path class="st3" d="M428.09,452.78c0.49-0.49,1.28-0.49,1.77,0c0.49,0.49,0.49,1.28,0,1.77s-1.28,0.49-1.77,0
				C427.6,454.07,427.6,453.27,428.09,452.78z"/>
			<polyline class="st19" points="322.36,354.39 378.36,296.05 260.36,323.05 			"/>
			<polyline class="st19" points="710.36,358.39 655.03,329.05 705.03,310.39 			"/>
			<circle class="st3" cx="245.81" cy="431.5" r="1.25"/>
			<circle class="st3" cx="158.72" cy="438.17" r="1.25"/>
		</g>
	</g>
</g>
</svg>
